<svg width="2000" height="2001" viewBox="0 0 2000 2001" fill="none" xmlns="http://www.w3.org/2000/svg">
<path d="M1720.61 1993.1C1787.09 1981.75 1839.55 1959.17 1891.13 1919.73C1976.87 1854.16 2018.63 1742.53 1991.81 1650.58C1977.63 1601.95 1959 1571.46 1918.6 1530.73C1875.43 1487.2 1832.48 1461.51 1769.32 1441.45C1684.93 1425.45 1601.53 1417.45 1525.75 1444.08C1466.22 1465.17 1422.75 1491.67 1383.17 1531.08L1348.27 1565.8L225.271 0C-271.569 379.34 156.961 1143.7 518.121 1224.21C295.901 1064.21 181.651 624.21 348.911 454.21L1227.43 1697.21C1367.78 1895.96 1465.59 2032.96 1720.61 1993.1Z" fill="white"/>
<path d="M1774.73 0.0200195C2271.53 379.34 1843 1143.7 1481.84 1224.21C1704.06 1064.21 1818.31 624.26 1651.05 454.21L1167.85 1162.87L1062.73 1016.37L1774.73 0.0200195ZM832.122 1290.63L937.221 1439.33L772.561 1697.27C632.211 1895.96 534.392 2032.96 279.382 1993.1C212.902 1981.75 160.432 1959.18 108.852 1919.74C23.1115 1854.17 -18.6385 1742.54 8.18153 1650.58C22.3615 1601.95 40.9915 1571.45 81.3815 1530.72C124.562 1487.19 167.512 1461.51 230.662 1441.44C315.062 1425.44 398.452 1417.44 474.232 1444.07C533.762 1465.17 577.232 1491.68 616.812 1531.07L651.711 1565.79L832.122 1290.63Z" fill="white"/>
</svg>
